<?xml version="1.0" encoding="UTF-8" standalone="no"?>
<svg xmlns="http://www.w3.org/2000/svg" viewBox="0 0 512 512" width="512" height="512">
  <!-- Background -->
  <rect x="64" y="64" width="384" height="384" rx="42" fill="#f9fafb" stroke="#475569" stroke-width="24"/>
  
  <!-- Markdown Symbol -->
  <g fill="#475569">
    <!-- M -->
    <path d="M128,352V160h48l48,64l48-64h48v192h-48V224l-48,64l-48-64v128Z"/>
    <!-- D -->
    <path d="M320,160h64c35.3,0,64,28.7,64,64v64c0,35.3-28.7,64-64,64h-64V160z M368,208v96h16c8.8,0,16-7.2,16-16v-64c0-8.8-7.2-16-16-16H368z"/>
  </g>
  
  <!-- Eye icon for "view" -->
  <g transform="translate(256, 420) scale(0.8)">
    <circle cx="0" cy="0" r="40" fill="#475569" />
    <circle cx="0" cy="0" r="16" fill="#f9fafb" />
    <path d="M-70,-20 C-30,-70 30,-70 70,-20 C30,30 -30,30 -70,-20 Z" fill="#475569" stroke="#f9fafb" stroke-width="8" />
  </g>
</svg>
